<svg width="128" height="128" viewBox="0 0 128 128" fill="none" xmlns="http://www.w3.org/2000/svg">
<rect width="128" height="128" rx="8" fill="#EBFB48"/>
<mask id="mask0_400_47" style="mask-type:luminance" maskUnits="userSpaceOnUse" x="28" y="28" width="72" height="72">
<path d="M100 28H28V100H100V28Z" fill="white"/>
</mask>
<g mask="url(#mask0_400_47)">
<path d="M100 65.1999L75.9999 62.6L99.0001 55.2C98.6 53.6 98.2 52.2001 97.5999 50.5999L73.8001 58.4L92.4 41.5999C91.4 40.4 90.3999 39.4 89.4 38.2L70.0001 55.8001L80.6 32C79.3999 31.4 78.2 30.8 76.8 30.4L66 55V28C65.4 28 64.8001 28 64 28C63.3999 28 62.8001 28 62.2 28V48.9999L53.6 29.6C50.7999 30.4 48 31.6 45.4 33.2L51.6 47.1999L40.2 37C38 38.8 36.2 41.0001 34.6 43.3999L46.8 54.3999L31.4 49.4C30.2 51.8 29.4 54.3999 28.8 57.2001L45.2 62.6L28 64C28 66.6001 28.2 69.2 28.8 71.6L46.8 69.8001L31.2 78.8001C32.2 81.0001 33.4 83.1999 35 85.1999L51.4 75.7999L40.4 91C42 92.6 43.8 93.9999 45.8 95.2001L57.4001 79.2001L53.2 98.6C55.2 99.1999 57.4001 99.8 59.7999 100L64 79.7999L68.2001 100C70.3999 99.8 72.3999 99.3999 74.4 98.6L70.0001 77.5999L82.6001 95.0001C84.2001 93.9999 85.8 92.8 87.4 91.6001L74.1999 73.6001L93.6001 84.7999C94.6 83.1999 95.5999 81.5999 96.4 80L76.4 68L99.3999 70.3999C99.8 68.7999 100 66.9999 100 65.1999Z" fill="#0D0D0D"/>
</g>
</svg>
